<?xml version="1.0" encoding="UTF-8"?>
<svg id="a" data-name="Layer 1" xmlns="http://www.w3.org/2000/svg" width="132.57" height="62" viewBox="0 0 132.57 62">
  <path d="M130.092,23.489c-1.657,7.088-4.109,15.575-6.182,20.692-3.554,8.79-6.944,12.312-14.874,13.024-10.674.963-42.753,2.953-42.753,2.953,0,0-32.076-1.99-42.75-2.953-7.93-.713-11.32-4.234-14.878-13.024-2.069-5.117-4.521-13.604-6.178-20.692-1.938-8.313.325-12.895,9.243-15.575C24.836,3.968,48.556,2.213,66.283,1.841c17.728.371,41.451,2.126,54.566,6.072,8.919,2.68,11.181,7.263,9.243,15.575Z" fill="#fff"/>
  <g>
    <path d="M88.87,19.852h0c0-1.184.96-2.144,2.144-2.144h21.727v-5.785h-25.852c-3.329,0-6.028,2.699-6.028,6.028v3.736c0,3.25,2.577,5.915,5.826,6.024l16.71.578c1.218.042,2.183,1.042,2.183,2.26h0c0,1.249-1.012,2.261-2.261,2.261h-22.246v5.785h26.337c3.413,0,6.179-2.767,6.179-6.179v-3.815c0-3.351-2.671-6.091-6.02-6.177l-16.61-.428c-1.162-.03-2.089-.98-2.089-2.143Z" fill="#004b93"/>
    <path d="M26.99,19.855h0c0-1.184.96-2.144,2.144-2.144h24.485s3.607-5.785,3.607-5.785H25.008c-3.329,0-6.028,2.699-6.028,6.028v3.736c0,3.25,2.577,5.915,5.826,6.024l16.71.578c1.218.042,2.183,1.042,2.183,2.26h0c0,1.249-1.012,2.261-2.261,2.261h-22.246v5.785h26.337c3.413,0,6.179-2.767,6.179-6.179v-3.815c0-3.351-2.671-6.091-6.02-6.177l-16.61-.428c-1.162-.03-2.089-.98-2.089-2.143Z" fill="#004b93"/>
    <path d="M74.961,35.535l-.777-1.498h-16.456l-2.465,4.557h-9.353l5.78-10.45h19.433l-5.001-9.622-2.879,5.321h-12.567c1.888-.494,3.535-1.371,4.891-2.709l5.073-9.17h10.967l14.305,26.63h-13.668c2.041-.541,3.147-1.477,2.718-3.06Z" fill="#c9002b"/>
  </g>
  <g>
    <g>
      <path d="M20.303,48.643c.013.301.046.373.203.432.098.039.471.065.89.065,1.538,0,1.721-.046,1.721-.406,0-.177-.085-.308-.222-.354q-.144-.046-.831-.052h-1.204c-.805,0-1.139-.046-1.42-.19-.314-.164-.458-.511-.458-1.106,0-.785.223-1.119.851-1.27.353-.092.864-.124,1.82-.124,1.532,0,1.885.039,2.199.242.301.203.399.471.399,1.126h-1.296c0-.38-.131-.432-.988-.432-.425,0-.995.013-1.204.026-.353.026-.471.118-.471.367,0,.183.092.301.282.347.079.02.105.026.537.033h1.237c.118,0,.707.02.929.033.831.039,1.159.406,1.159,1.283,0,.805-.236,1.158-.877,1.296-.327.072-.975.111-1.924.111-1.512,0-1.846-.033-2.232-.229-.268-.131-.406-.465-.406-.982,0-.039,0-.124.006-.216h1.303Z" fill="#004b93"/>
      <path d="M26.781,45.672v2.16c0,.478,0,.491.02.609.065.491.282.589,1.276.589s1.27-.026,1.433-.151c.131-.098.196-.288.203-.622q.007-.098.007-.583v-2.003h1.329v2.291c.013,1.08-.079,1.401-.465,1.748-.314.242-.707.347-1.276.353-.203.007-.321.007-.583.007l-.497.007c-1.231-.007-1.473-.02-1.793-.105-.792-.242-1.001-.655-.982-1.951v-2.35h1.329Z" fill="#004b93"/>
      <path d="M32.147,45.672h3.764c.772,0,1.113.065,1.361.275.255.203.373.576.373,1.165,0,.812-.196,1.132-.753,1.257.543.092.707.321.694.982v.687h-1.348v-.543c-.007-.471-.138-.569-.733-.556h-2.036v1.1h-1.322v-4.366ZM35.544,47.871c.641,0,.766-.079.766-.511,0-.281-.026-.399-.111-.491-.098-.105-.209-.124-.609-.124h-2.121v1.126h2.075Z" fill="#004b93"/>
      <path d="M40.655,48.526l-2.494-2.854h1.695l1.473,1.807,1.46-1.807h1.663l-2.461,2.854v1.512h-1.335v-1.512Z" fill="#004b93"/>
      <path d="M46.25,45.672h1.78l2.389,4.366h-1.453l-.432-.779h-2.814l-.419.779h-1.506l2.455-4.366ZM48.07,48.349l-.943-1.741-.929,1.741h1.872Z" fill="#004b93"/>
    </g>
    <g>
      <path d="M54.966,45.672h1.78l2.389,4.366h-1.453l-.432-.779h-2.815l-.419.779h-1.505l2.454-4.366ZM56.785,48.349l-.943-1.741-.929,1.741h1.872Z" fill="#c9002b"/>
      <path d="M59.899,45.672h3.94c.504,0,.779.046,1.008.157.354.183.497.478.497,1.034,0,.569-.196.864-.609.943.589.111.785.367.785,1.001,0,.55-.157.897-.504,1.08-.203.105-.491.15-.995.15h-4.124v-4.366ZM63.427,47.413c.255,0,.347-.013.432-.052.105-.059.17-.177.17-.327,0-.177-.085-.308-.229-.36-.085-.026-.15-.033-.406-.033h-2.199v.772h2.232ZM63.571,49.069c.268,0,.321-.007.406-.033.131-.046.209-.177.209-.36,0-.19-.079-.321-.223-.373-.079-.026-.131-.033-.425-.033h-2.343v.799h2.376Z" fill="#c9002b"/>
      <path d="M68.512,45.672h1.78l2.389,4.366h-1.453l-.432-.779h-2.815l-.419.779h-1.505l2.454-4.366ZM70.331,48.349l-.943-1.741-.929,1.741h1.872Z" fill="#c9002b"/>
      <path d="M73.289,45.672h3.77c.923,0,1.355.105,1.656.406.242.236.34.511.386,1.067.013.203.026.504.026.713,0,.393-.026.844-.065,1.093-.072.524-.439.93-.916,1.021-.249.052-.445.065-.91.065h-3.947v-4.366ZM76.843,48.997c.36,0,.386,0,.543-.052.321-.098.406-.327.406-1.08,0-.916-.157-1.106-.923-1.106h-2.252v2.239h2.225Z" fill="#c9002b"/>
      <path d="M80.18,45.672h1.329v4.366h-1.329v-4.366Z" fill="#c9002b"/>
    </g>
    <g>
      <path d="M86.647,48.643c.013.301.046.373.203.432.098.039.471.065.89.065,1.538,0,1.722-.046,1.722-.406,0-.177-.085-.308-.223-.354q-.144-.046-.831-.052h-1.204c-.805,0-1.139-.046-1.42-.19-.314-.164-.458-.511-.458-1.106,0-.785.222-1.119.851-1.27.354-.092.864-.124,1.82-.124,1.532,0,1.885.039,2.199.242.301.203.399.471.399,1.126h-1.296c0-.38-.131-.432-.988-.432-.425,0-.995.013-1.204.026-.354.026-.471.118-.471.367,0,.183.092.301.281.347.079.02.105.026.537.033h1.237c.118,0,.707.02.93.033.831.039,1.158.406,1.158,1.283,0,.805-.235,1.158-.877,1.296-.327.072-.975.111-1.924.111-1.512,0-1.846-.033-2.232-.229-.268-.131-.406-.465-.406-.982,0-.039,0-.124.007-.216h1.302Z" fill="#004b93"/>
      <path d="M93.413,46.752h-1.944v-1.08h5.217v1.08h-1.944v3.286h-1.329v-3.286Z" fill="#004b93"/>
      <path d="M102.366,45.672v.988h-3.528v.753h3.325v.864h-3.325v.772h3.574v.988h-4.883v-4.366h4.837Z" fill="#004b93"/>
      <path d="M108.23,45.672v.988h-3.528v.753h3.325v.864h-3.325v.772h3.574v.988h-4.883v-4.366h4.837Z" fill="#004b93"/>
      <path d="M109.256,45.672h1.329v3.286h3.004v1.08h-4.333v-4.366Z" fill="#004b93"/>
    </g>
  </g>
  <path d="M121.38,6.15C108.219,2.191,84.309.377,66.322,0c-.026,0-.051,0-.077,0C48.259.377,24.351,2.191,11.191,6.15,1.597,9.033-1.545,14.344.685,23.908c1.841,7.878,4.3,16.106,6.264,20.964,3.457,8.542,7.098,13.33,16.419,14.167,10.577.955,42.48,2.937,42.801,2.957.038.003.076.004.114.004s.076-.001.114-.004c.321-.02,32.228-2.003,42.804-2.957,4.442-.399,7.573-1.618,10.149-3.952,2.363-2.141,4.237-5.196,6.266-10.215,1.966-4.852,4.426-13.081,6.268-20.964h0c2.23-9.564-.912-14.875-10.506-17.758ZM108.871,55.372c-10.208.921-40.476,2.811-42.588,2.942-2.112-.131-32.376-2.021-42.585-2.942-6.863-.617-9.855-3.282-13.335-11.88-.084-.207-.169-.424-.255-.645h112.351c-.086.221-.171.438-.255.645-3.476,8.599-6.467,11.264-13.332,11.88ZM128.299,23.071c-1.589,6.8-3.719,14.087-5.49,18.855H9.758c-1.77-4.77-3.899-12.059-5.487-18.855-1.791-7.683.222-11.063,7.98-13.394,12.796-3.85,36.293-5.62,54.032-5.994,17.74.374,41.239,2.144,54.036,5.994,7.757,2.331,9.771,5.711,7.98,13.394Z" fill="#004b93"/>
</svg>