<?xml version="1.0" encoding="UTF-8"?>
<svg id="b" data-name="Layer 2" xmlns="http://www.w3.org/2000/svg" width="219.891" height="62" viewBox="0 0 219.891 62">
  <g id="c" data-name="Layer 1">
    <g>
      <path d="M162.438,18.429h0c0-2.752,2.231-4.983,4.983-4.983h50.498V0h-60.087c-7.737,0-14.009,6.272-14.009,14.009v8.682c0,7.555,5.99,13.749,13.541,14.002l38.838,1.344c2.83.098,5.074,2.421,5.074,5.253h0c0,2.903-2.353,5.256-5.256,5.256h-51.704v13.447h61.213c7.932,0,14.362-6.43,14.362-14.362v-8.867c0-7.788-6.207-14.157-13.992-14.358l-38.605-.995c-2.702-.069-4.856-2.279-4.856-4.981Z" fill="#004b93"/>
      <path d="M18.615,18.437h0c0-2.752,2.231-4.983,4.983-4.983h56.909S88.89.007,88.89.007H14.009C6.272.007,0,6.28,0,14.017v8.682c0,7.555,5.99,13.749,13.541,14.002l38.838,1.344c2.83.098,5.074,2.421,5.074,5.253h0c0,2.903-2.353,5.256-5.256,5.256H.493v13.447h61.213c7.932,0,14.362-6.43,14.362-14.362v-8.867c0-7.788-6.207-14.157-13.992-14.358l-38.605-.995c-2.702-.069-4.856-2.279-4.856-4.981Z" fill="#004b93"/>
      <path d="M130.11,54.881l-1.805-3.482h-38.248l-5.73,10.593h-21.737l13.433-24.287h45.166l-11.623-22.364-6.692,12.368h-29.208c4.389-1.149,8.216-3.186,11.367-6.297L96.823.098h25.49l33.247,61.894h-31.768c4.744-1.257,7.313-3.432,6.317-7.111Z" fill="#c9002b"/>
    </g>
  </g>
</svg>